<svg width="60" height="13" viewBox="0 0 60 13" fill="none" xmlns="http://www.w3.org/2000/svg">
<path d="M59.0872 7.17678L2.86606 7.17678L6.17938 10.931C6.33431 11.1068 6.40884 11.3335 6.38659 11.5612C6.36434 11.7889 6.24712 11.9989 6.06072 12.1451C5.87432 12.2912 5.63401 12.3615 5.39265 12.3405C5.15129 12.3195 4.92866 12.209 4.77373 12.0331L0.209935 6.86681C0.17923 6.82571 0.151773 6.78254 0.127786 6.73765C0.127786 6.6946 0.127786 6.66876 0.0638933 6.62571C0.0225211 6.52698 0.000859017 6.42189 0 6.31573C0.000859017 6.20957 0.0225211 6.10448 0.0638933 6.00575C0.0638933 5.9627 0.063893 5.93687 0.127786 5.89382C0.151773 5.84892 0.17923 5.80575 0.209935 5.76466L4.77373 0.598345C4.85955 0.501147 4.96702 0.42298 5.08849 0.369405C5.20996 0.315829 5.34246 0.28816 5.47655 0.288366C5.68982 0.287973 5.8965 0.358041 6.06072 0.486408C6.15314 0.558693 6.22954 0.647469 6.28554 0.74765C6.34154 0.847831 6.37604 0.957447 6.38706 1.07023C6.39809 1.183 6.38541 1.29672 6.34978 1.40488C6.31414 1.51303 6.25623 1.61348 6.17938 1.70049L2.86606 5.45468L59.0872 5.45468C59.3293 5.45468 59.5615 5.5454 59.7327 5.70688C59.9038 5.86836 60 6.08737 60 6.31573C60 6.5441 59.9038 6.76311 59.7327 6.92459C59.5615 7.08607 59.3293 7.17678 59.0872 7.17678Z" fill="white"/>
</svg>
