<svg width="18" height="17" viewBox="0 0 18 17" fill="none" xmlns="http://www.w3.org/2000/svg">
<path d="M17.3235 0.969923L16.8416 0.515275C16.0415 -0.239597 14.8393 -0.155453 14.133 0.704557L6.07017 10.5206L3.63637 8.2191C2.83718 7.46338 1.63478 7.54583 0.927604 8.40491L0.501455 8.92267C0.155867 9.3423 -0.0235701 9.89584 0.00248845 10.4613C0.0288039 11.0264 0.258413 11.5569 0.64118 11.9362L5.10244 16.4219C5.4887 16.8201 6.00635 17.0278 6.53544 16.997C7.06454 16.9663 7.55922 16.6994 7.90484 16.2584L17.5298 3.97901C17.8661 3.54999 18.0333 2.99194 17.9945 2.42768C17.9558 1.86302 17.7145 1.33873 17.3235 0.969923Z" fill="#0FD682"/>
</svg>
